<mxfile host="app.diagrams.net" modified="2022-01-31T14:51:39.433Z" agent="5.0 (Windows)" etag="GB7KGD8RTBQiBLApkqkn" version="16.5.2" type="github">
  <diagram id="C5RBs43oDa-KdzZeNtuy" name="Page-1">
    <mxGraphModel dx="2249" dy="1921" grid="1" gridSize="10" guides="1" tooltips="1" connect="1" arrows="1" fold="1" page="1" pageScale="1" pageWidth="827" pageHeight="1169" math="0" shadow="0">
      <root>
        <mxCell id="WIyWlLk6GJQsqaUBKTNV-0" />
        <mxCell id="WIyWlLk6GJQsqaUBKTNV-1" parent="WIyWlLk6GJQsqaUBKTNV-0" />
        <mxCell id="zxL5zWdCW-zHQKjPgyib-11" value="Card" style="swimlane;" vertex="1" parent="WIyWlLk6GJQsqaUBKTNV-1">
          <mxGeometry x="10" y="80" width="200" height="280" as="geometry" />
        </mxCell>
        <mxCell id="zxL5zWdCW-zHQKjPgyib-12" value="Required Age" style="text;html=1;align=center;verticalAlign=middle;resizable=0;points=[];autosize=1;strokeColor=none;fillColor=none;" vertex="1" parent="zxL5zWdCW-zHQKjPgyib-11">
          <mxGeometry y="60" width="90" height="20" as="geometry" />
        </mxCell>
        <mxCell id="zxL5zWdCW-zHQKjPgyib-28" value="DomesticTransaction()" style="text;html=1;align=center;verticalAlign=middle;resizable=0;points=[];autosize=1;strokeColor=none;fillColor=none;" vertex="1" parent="zxL5zWdCW-zHQKjPgyib-11">
          <mxGeometry y="250" width="140" height="20" as="geometry" />
        </mxCell>
        <mxCell id="zxL5zWdCW-zHQKjPgyib-32" value="List&amp;lt;int&amp;gt; Prefixes" style="text;html=1;align=center;verticalAlign=middle;resizable=0;points=[];autosize=1;strokeColor=none;fillColor=none;" vertex="1" parent="zxL5zWdCW-zHQKjPgyib-11">
          <mxGeometry y="90" width="110" height="20" as="geometry" />
        </mxCell>
        <mxCell id="zxL5zWdCW-zHQKjPgyib-33" value="CardNumberLength" style="text;html=1;align=center;verticalAlign=middle;resizable=0;points=[];autosize=1;strokeColor=none;fillColor=none;" vertex="1" parent="zxL5zWdCW-zHQKjPgyib-11">
          <mxGeometry y="120" width="130" height="20" as="geometry" />
        </mxCell>
        <mxCell id="zxL5zWdCW-zHQKjPgyib-34" value="&lt;div&gt;CardNumber &lt;br&gt;&lt;/div&gt;&lt;div&gt;-&amp;gt; GenerateCardNumber()&lt;/div&gt;" style="text;html=1;align=center;verticalAlign=middle;resizable=0;points=[];autosize=1;strokeColor=none;fillColor=none;" vertex="1" parent="zxL5zWdCW-zHQKjPgyib-11">
          <mxGeometry y="210" width="160" height="30" as="geometry" />
        </mxCell>
        <mxCell id="zxL5zWdCW-zHQKjPgyib-36" value="Customer" style="text;html=1;align=center;verticalAlign=middle;resizable=0;points=[];autosize=1;strokeColor=none;fillColor=none;" vertex="1" parent="zxL5zWdCW-zHQKjPgyib-11">
          <mxGeometry y="30" width="70" height="20" as="geometry" />
        </mxCell>
        <mxCell id="zxL5zWdCW-zHQKjPgyib-42" value="&lt;div&gt;RegistrationNumber&lt;/div&gt;" style="text;html=1;align=center;verticalAlign=middle;resizable=0;points=[];autosize=1;strokeColor=none;fillColor=none;" vertex="1" parent="zxL5zWdCW-zHQKjPgyib-11">
          <mxGeometry y="150" width="130" height="20" as="geometry" />
        </mxCell>
        <mxCell id="zxL5zWdCW-zHQKjPgyib-43" value="AccountNumber" style="text;html=1;align=center;verticalAlign=middle;resizable=0;points=[];autosize=1;strokeColor=none;fillColor=none;" vertex="1" parent="zxL5zWdCW-zHQKjPgyib-11">
          <mxGeometry y="180" width="100" height="20" as="geometry" />
        </mxCell>
        <mxCell id="zxL5zWdCW-zHQKjPgyib-15" value="ICreditCard" style="swimlane;" vertex="1" parent="WIyWlLk6GJQsqaUBKTNV-1">
          <mxGeometry x="220" y="80" width="200" height="60" as="geometry" />
        </mxCell>
        <mxCell id="zxL5zWdCW-zHQKjPgyib-14" value="&lt;div&gt;CreditLimit&lt;/div&gt;" style="text;html=1;align=center;verticalAlign=middle;resizable=0;points=[];autosize=1;strokeColor=none;fillColor=none;" vertex="1" parent="zxL5zWdCW-zHQKjPgyib-15">
          <mxGeometry y="30" width="80" height="20" as="geometry" />
        </mxCell>
        <mxCell id="zxL5zWdCW-zHQKjPgyib-16" value="ILimitations" style="swimlane;" vertex="1" parent="WIyWlLk6GJQsqaUBKTNV-1">
          <mxGeometry x="430" y="80" width="200" height="60" as="geometry" />
        </mxCell>
        <mxCell id="zxL5zWdCW-zHQKjPgyib-17" value="&lt;div&gt;TransactionLimit&lt;/div&gt;" style="text;html=1;align=center;verticalAlign=middle;resizable=0;points=[];autosize=1;strokeColor=none;fillColor=none;" vertex="1" parent="zxL5zWdCW-zHQKjPgyib-16">
          <mxGeometry y="30" width="110" height="20" as="geometry" />
        </mxCell>
        <mxCell id="zxL5zWdCW-zHQKjPgyib-29" value="INonDomesticTransactions" style="swimlane;" vertex="1" parent="WIyWlLk6GJQsqaUBKTNV-1">
          <mxGeometry x="640" y="80" width="200" height="90" as="geometry" />
        </mxCell>
        <mxCell id="zxL5zWdCW-zHQKjPgyib-30" value="InternationalTransaction()" style="text;html=1;align=center;verticalAlign=middle;resizable=0;points=[];autosize=1;strokeColor=none;fillColor=none;" vertex="1" parent="zxL5zWdCW-zHQKjPgyib-29">
          <mxGeometry y="30" width="160" height="20" as="geometry" />
        </mxCell>
        <mxCell id="zxL5zWdCW-zHQKjPgyib-31" value="OnlineTransaction()" style="text;html=1;align=center;verticalAlign=middle;resizable=0;points=[];autosize=1;strokeColor=none;fillColor=none;" vertex="1" parent="zxL5zWdCW-zHQKjPgyib-29">
          <mxGeometry y="60" width="120" height="20" as="geometry" />
        </mxCell>
        <mxCell id="zxL5zWdCW-zHQKjPgyib-38" value="IExpiryDate" style="swimlane;" vertex="1" parent="WIyWlLk6GJQsqaUBKTNV-1">
          <mxGeometry x="850" y="80" width="200" height="70" as="geometry" />
        </mxCell>
        <mxCell id="zxL5zWdCW-zHQKjPgyib-37" value="&lt;div&gt;ExpiresAfter&lt;/div&gt;&lt;div&gt;-&amp;gt; CalculateExpirationDate()&lt;br&gt;&lt;/div&gt;" style="text;html=1;align=center;verticalAlign=middle;resizable=0;points=[];autosize=1;strokeColor=none;fillColor=none;" vertex="1" parent="zxL5zWdCW-zHQKjPgyib-38">
          <mxGeometry y="30" width="170" height="30" as="geometry" />
        </mxCell>
        <mxCell id="zxL5zWdCW-zHQKjPgyib-39" value="Customer" style="swimlane;" vertex="1" parent="WIyWlLk6GJQsqaUBKTNV-1">
          <mxGeometry x="10" y="-130" width="200" height="200" as="geometry" />
        </mxCell>
        <mxCell id="zxL5zWdCW-zHQKjPgyib-40" value="Name" style="text;html=1;align=center;verticalAlign=middle;resizable=0;points=[];autosize=1;strokeColor=none;fillColor=none;" vertex="1" parent="zxL5zWdCW-zHQKjPgyib-39">
          <mxGeometry y="30" width="50" height="20" as="geometry" />
        </mxCell>
        <mxCell id="zxL5zWdCW-zHQKjPgyib-41" value="Age" style="text;html=1;align=center;verticalAlign=middle;resizable=0;points=[];autosize=1;strokeColor=none;fillColor=none;" vertex="1" parent="zxL5zWdCW-zHQKjPgyib-39">
          <mxGeometry y="60" width="40" height="20" as="geometry" />
        </mxCell>
        <mxCell id="zxL5zWdCW-zHQKjPgyib-44" value="" style="endArrow=classic;html=1;rounded=0;" edge="1" parent="WIyWlLk6GJQsqaUBKTNV-1">
          <mxGeometry width="50" height="50" relative="1" as="geometry">
            <mxPoint y="-120" as="sourcePoint" />
            <mxPoint y="120" as="targetPoint" />
            <Array as="points">
              <mxPoint x="-50" y="-120" />
              <mxPoint x="-50" y="120" />
            </Array>
          </mxGeometry>
        </mxCell>
        <mxCell id="zxL5zWdCW-zHQKjPgyib-45" value="Debit Card" style="swimlane;" vertex="1" parent="WIyWlLk6GJQsqaUBKTNV-1">
          <mxGeometry x="10" y="485" width="200" height="200" as="geometry" />
        </mxCell>
        <mxCell id="zxL5zWdCW-zHQKjPgyib-47" value="Required Age &amp;lt; 18" style="text;html=1;align=center;verticalAlign=middle;resizable=0;points=[];autosize=1;strokeColor=none;fillColor=none;" vertex="1" parent="zxL5zWdCW-zHQKjPgyib-45">
          <mxGeometry y="35" width="120" height="20" as="geometry" />
        </mxCell>
        <mxCell id="zxL5zWdCW-zHQKjPgyib-48" value="Prefixes = 2400" style="text;html=1;align=center;verticalAlign=middle;resizable=0;points=[];autosize=1;strokeColor=none;fillColor=none;" vertex="1" parent="zxL5zWdCW-zHQKjPgyib-45">
          <mxGeometry y="55" width="100" height="20" as="geometry" />
        </mxCell>
        <mxCell id="zxL5zWdCW-zHQKjPgyib-49" value="CardnumberLength = 16" style="text;html=1;align=center;verticalAlign=middle;resizable=0;points=[];autosize=1;strokeColor=none;fillColor=none;" vertex="1" parent="zxL5zWdCW-zHQKjPgyib-45">
          <mxGeometry y="75" width="150" height="20" as="geometry" />
        </mxCell>
        <mxCell id="zxL5zWdCW-zHQKjPgyib-50" value="RegistrationNumber = 3520" style="text;html=1;align=center;verticalAlign=middle;resizable=0;points=[];autosize=1;strokeColor=none;fillColor=none;" vertex="1" parent="zxL5zWdCW-zHQKjPgyib-45">
          <mxGeometry y="95" width="170" height="20" as="geometry" />
        </mxCell>
        <mxCell id="zxL5zWdCW-zHQKjPgyib-46" value="" style="endArrow=classic;html=1;rounded=0;exitX=0.25;exitY=1;exitDx=0;exitDy=0;" edge="1" parent="WIyWlLk6GJQsqaUBKTNV-1" source="zxL5zWdCW-zHQKjPgyib-11">
          <mxGeometry width="50" height="50" relative="1" as="geometry">
            <mxPoint x="-50" y="200" as="sourcePoint" />
            <mxPoint x="60" y="480" as="targetPoint" />
          </mxGeometry>
        </mxCell>
      </root>
    </mxGraphModel>
  </diagram>
</mxfile>
